<?xml version="1.0" encoding="UTF-8"?>
<svg
  version="1.1"
  xmlns="http://www.w3.org/2000/svg"
  width="1289"
  height="1042"
>
  <path
    d="M0 0 C1.1314658 0.00035877 1.1314658 0.00035877 2.28578949 0.00072479 C26.84164626 0.0105471 51.05056637 0.75055221 75.375 4.375 C76.12430786 4.48390564 76.87361572 4.59281128 77.64562988 4.70501709 C98.87257559 7.79534286 121.09031059 11.14709252 141.33398438 18.44116211 C144.50893516 19.41612893 147.19901754 19.70044304 150.51171875 19.83203125 C151.71086914 19.8897168 152.91001953 19.94740234 154.14550781 20.00683594 C156.08441895 20.09626465 156.08441895 20.09626465 158.0625 20.1875 C224.70175534 23.78908173 294.32551432 43.05610191 346.375 86.375 C346.95056641 86.84373535 347.52613281 87.3124707 348.11914062 87.79541016 C359.27344416 96.88057194 359.27344416 96.88057194 363.30078125 101.89453125 C371.23195635 111.69585271 379.44213461 115.51955952 391.1484375 119.9453125 C417.20294721 129.81579229 440.09104629 146.74955211 460.82519531 165.03857422 C462.44319587 166.43380658 464.10538139 167.76291855 465.7734375 169.09765625 C466.63195313 169.84917969 467.49046875 170.60070312 468.375 171.375 C468.375 172.035 468.375 172.695 468.375 173.375 C469.26445312 173.75978516 469.26445312 173.75978516 470.171875 174.15234375 C472.58436364 175.4911894 473.866406 176.82462615 475.625 178.9375 C478.09586841 181.86477086 480.60420421 184.73392158 483.1875 187.5625 C498.73789571 205.09040268 511.66740954 225.28021893 521.33984375 246.61328125 C524.51259496 253.56347272 527.2829334 257.76459529 533.5078125 262.2109375 C572.21572883 291.42644928 595.2749034 345.92027748 602.375 392.375 C602.67058393 394.91228977 602.94983324 397.4515225 603.21484375 399.9921875 C604.73740231 414.40645665 606.24429626 424.99986241 615.10986328 436.60058594 C617.29605193 439.66681887 618.9204858 442.99471699 620.5625 446.375 C620.88629639 447.03975342 621.21009277 447.70450684 621.54370117 448.3894043 C622.50026162 450.37882717 623.44007608 452.37532903 624.375 454.375 C624.82504395 455.32511963 624.82504395 455.32511963 625.28417969 456.29443359 C647.9897575 504.59021278 653.82010192 560.56402352 636.375 611.375 C633.43948901 619.11641438 630.38195812 627.09748168 626.27441406 634.30664062 C625.17072001 636.84477743 625.10388705 638.80970322 625.06640625 641.57421875 C625.04352539 642.60571045 625.02064453 643.63720215 624.99707031 644.69995117 C624.97741211 645.80959229 624.95775391 646.9192334 624.9375 648.0625 C623.19951627 707.40636816 603.14200847 764.94610621 563.71875 809.84326172 C562.41779767 811.32621501 561.13052081 812.82113091 559.84375 814.31640625 C555.00256188 819.82402375 549.96107914 824.61152697 544.1953125 829.140625 C542.3198613 830.62643953 540.48004639 832.15840867 538.6796875 833.734375 C530.56829472 840.82901938 521.79148736 846.46568357 512.58642578 852.03222656 C510.72078966 853.16503719 508.87201375 854.32554673 507.02734375 855.4921875 C489.58243963 866.12233135 462.32180072 881.02621964 441.375 880.375 C441.22695923 881.38554443 441.22695923 881.38554443 441.07592773 882.41650391 C439.96545235 889.27725089 438.13950428 895.35905997 435.4375 901.75 C435.0441748 902.69117676 434.65084961 903.63235352 434.24560547 904.60205078 C425.37206819 925.40406333 414.18353141 944.25515516 399.375 961.375 C398.71628906 962.14457031 398.05757812 962.91414062 397.37890625 963.70703125 C386.15399429 976.50215774 374.13615516 988.34304412 360.375 998.375 C359.37726562 999.1175 358.37953125 999.86 357.3515625 1000.625 C302.73203767 1039.93982507 238.76519499 1048.41521297 173.44311523 1038.0390625 C124.87778907 1029.82633473 76.37420714 1013.07365775 40.375 978.375 C39.58609375 977.64925781 38.7971875 976.92351563 37.984375 976.17578125 C30.20373245 968.81681688 23.53520821 959.76324977 18.375 950.375 C18.375 949.715 18.375 949.055 18.375 948.375 C17.46621094 948.64054688 16.55742188 948.90609375 15.62109375 949.1796875 C-15.06260302 957.80259305 -48.02121005 956.95834578 -76.41186523 941.45605469 C-81.5642524 938.53056408 -86.1676016 935.26389472 -90.625 931.375 C-91.45644531 930.6634375 -92.28789063 929.951875 -93.14453125 929.21875 C-100.08208423 923.14449072 -106.12900806 917.09515392 -110.828125 909.12109375 C-111.35567383 908.22962646 -111.88322266 907.33815918 -112.42675781 906.41967773 C-112.82217773 905.74493408 -113.21759766 905.07019043 -113.625 904.375 C-118.31343093 905.26599106 -123.00078253 906.16254484 -127.6875 907.0625 C-128.38972687 907.19716675 -129.09195374 907.3318335 -129.81546021 907.47058105 C-139.78665237 909.38692022 -149.72652599 911.39727659 -159.61157227 913.7253418 C-172.90221653 916.7522314 -186.15117645 917.76238493 -199.75 917.6875 C-200.46322418 917.68534485 -201.17644836 917.6831897 -201.9112854 917.68096924 C-230.26279969 917.54448751 -256.00900528 911.54486699 -281.625 899.375 C-282.31674316 899.04773926 -283.00848633 898.72047852 -283.72119141 898.38330078 C-303.03127252 889.07799314 -320.09056109 875.31982848 -335.125 860.1875 C-336.0420874 859.26477295 -336.9591748 858.3420459 -337.90405273 857.39135742 C-344.74552723 850.42711684 -351.02069509 843.36342063 -356.625 835.375 C-357.09131836 834.72063965 -357.55763672 834.0662793 -358.03808594 833.39208984 C-385.625 794.40584936 -385.625 794.40584936 -385.625 781.375 C-386.92630859 781.25366699 -388.22761719 781.13233398 -389.56835938 781.00732422 C-394.34709003 780.4729744 -398.88467269 779.47170213 -403.53125 778.2578125 C-404.77631065 777.93881485 -404.77631065 777.93881485 -406.04652405 777.6133728 C-408.74183093 776.91806724 -411.43374737 776.21082836 -414.125 775.5 C-415.05206757 775.25612549 -415.97913513 775.01225098 -416.93429565 774.76098633 C-480.07246948 758.07650717 -543.85911158 730.76235565 -584.625 677.375 C-585.03782227 676.84390625 -585.45064453 676.3128125 -585.87597656 675.765625 C-604.85493772 651.26576692 -618.00432104 623.73415404 -627.625 594.375 C-628.05570801 593.06595703 -628.05570801 593.06595703 -628.49511719 591.73046875 C-657.24735262 502.52570452 -635.90739378 410.69668443 -588.2890625 311.734375 C-572.03540449 280.12782037 -551.40022571 250.6086712 -528.625 223.375 C-528.18462402 222.84825684 -527.74424805 222.32151367 -527.29052734 221.77880859 C-515.90019765 208.20153559 -503.75735137 195.42256793 -491.25 182.875 C-490.32268066 181.94300781 -489.39536133 181.01101562 -488.43994141 180.05078125 C-483.32833086 174.95112877 -478.12727338 170.04922586 -472.625 165.375 C-471.46038469 164.36652346 -470.29630701 163.35742566 -469.1328125 162.34765625 C-462.40488549 156.54913605 -455.6380076 150.82847165 -448.625 145.375 C-448.03412598 144.91544922 -447.44325195 144.45589844 -446.83447266 143.98242188 C-432.17832495 132.61183614 -417.3660426 121.41408127 -401.60253906 111.61181641 C-399.35807899 110.20805903 -397.12879096 108.78152709 -394.8984375 107.35546875 C-339.63105987 72.25820489 -276.31048228 52.29356965 -213.40795898 35.81274414 C-201.85342 32.78458839 -190.3488566 29.62360858 -178.8692627 26.3230896 C-145.68773898 16.79762207 -112.27496583 9.43091256 -78.0625 4.6875 C-77.33332367 4.58458649 -76.60414734 4.48167297 -75.85287476 4.37564087 C-50.62549388 0.84787654 -25.43373641 -0.03589709 0 0 Z "
    fill="#102E71"
    transform="translate(642.625,-0.375)"
  />
  <path
    d="M0 0 C4.92223222 4.23615123 9.70290005 8.60203515 14.41015625 13.07421875 C14.94576172 13.58114258 15.48136719 14.08806641 16.03320312 14.61035156 C27.89338238 25.91348316 37.55113963 38.32378179 46.41015625 52.07421875 C47.51653442 51.97246338 47.51653442 51.97246338 48.64526367 51.86865234 C95.65816394 47.86586648 139.02434498 55.80015866 176.23925781 86.58740234 C180.11945123 89.92680604 183.80588656 93.44028918 187.41015625 97.07421875 C187.89709961 97.56390137 188.38404297 98.05358398 188.88574219 98.55810547 C216.23702105 126.41452884 229.6988756 162.66581296 232.41015625 201.07421875 C233.46589844 201.42033203 233.46589844 201.42033203 234.54296875 201.7734375 C247.67159771 206.10965568 260.4859578 210.44756007 272.62744141 217.11230469 C274.42560663 218.08255544 276.24442389 218.99347589 278.078125 219.89453125 C321.6260244 241.59955787 354.37353994 282.02940176 373.41015625 326.07421875 C374.16232422 327.77771484 374.16232422 327.77771484 374.9296875 329.515625 C378.60565131 338.50670272 380.94741444 347.75773184 383.16015625 357.19921875 C383.4540625 358.44968994 383.74796875 359.70016113 384.05078125 360.98852539 C387.18888588 374.81852296 388.7269355 388.02596797 388.6159668 402.16943359 C388.59767773 404.57139769 388.59545837 406.97297327 388.59570312 409.375 C388.56792462 422.17825951 388.16089875 434.8554005 385.66015625 447.44921875 C385.3979126 448.78956177 385.3979126 448.78956177 385.13037109 450.15698242 C383.46496308 458.34292339 381.1761975 466.19961339 378.41015625 474.07421875 C378.19665527 474.70038086 377.9831543 475.32654297 377.76318359 475.97167969 C368.82896781 502.03370123 355.4091947 525.26133063 337.41015625 546.07421875 C336.59546875 547.01910156 335.78078125 547.96398437 334.94140625 548.9375 C332.80383891 551.35731655 330.62594193 553.72596762 328.41015625 556.07421875 C327.2809375 557.28271484 327.2809375 557.28271484 326.12890625 558.515625 C320.37696151 564.48233391 314.17526828 569.60395923 307.609375 574.62890625 C307.06571289 575.04503174 306.52205078 575.46115723 305.96191406 575.88989258 C304.53896701 576.97590834 303.11336373 578.05844148 301.6875 579.140625 C299.48357211 581.01188453 297.9586858 582.79290118 296.28515625 585.13671875 C281.91548434 603.95635358 263.3948517 614.24812711 240.41015625 619.07421875 C239.7169171 619.24770678 239.02367795 619.42119482 238.30943155 619.59994006 C234.33829707 620.24955911 230.45328891 620.21405329 226.4358139 620.20564651 C225.07154724 620.20872547 225.07154724 620.20872547 223.67971963 620.21186662 C220.61568989 620.21754517 217.55170498 620.21607829 214.4876709 620.21466064 C212.27505425 620.21724382 210.06243806 620.22025685 207.84982252 620.22366405 C201.75621155 620.23174349 195.66261236 620.23352415 189.56899667 620.23426151 C183.67561416 620.23592074 177.7822378 620.24223792 171.8888585 620.24833992 C156.09450516 620.26440281 140.30015279 620.27030448 124.50579275 620.27508867 C117.02925431 620.27742532 109.55271664 620.28102816 102.07617879 620.28478405 C76.46976514 620.29762265 50.86335192 620.30833933 25.25693512 620.31178665 C23.64927446 620.31200828 22.0416138 620.31223007 20.43395314 620.312452 C18.82244625 620.31267264 17.21093936 620.31289312 15.59943247 620.31311345 C12.36658128 620.313556 9.13373009 620.31400311 5.90087891 620.31445312 C4.69853915 620.31461721 4.69853915 620.31461721 3.47190969 620.31478461 C-22.49037787 620.31841132 -48.45263744 620.33431518 -74.41491429 620.35764349 C-101.87946913 620.38227638 -129.34400799 620.39596119 -156.8085742 620.39715457 C-159.82772033 620.39732601 -162.84686645 620.39754144 -165.86601257 620.397789 C-166.6093823 620.39784477 -167.35275202 620.39790054 -168.1186481 620.397958 C-180.05050669 620.39910575 -191.98233644 620.41010471 -203.91418532 620.42467606 C-215.92593311 620.43909036 -227.9376442 620.44225042 -239.94939828 620.43423608 C-246.44911891 620.43019025 -252.94876242 620.43120369 -259.44847298 620.44529343 C-265.41149108 620.45810083 -271.37434103 620.45677514 -277.33735913 620.44470271 C-279.48225444 620.44275745 -281.62716195 620.44576926 -283.77204019 620.45454708 C-301.08753554 620.52086102 -318.9600293 619.87426201 -335.40234375 613.88671875 C-336.26359863 613.58556152 -337.12485352 613.2844043 -338.01220703 612.97412109 C-350.39523347 608.50852515 -361.62273521 602.22549351 -372.8046875 595.35546875 C-376.02695966 593.38802776 -379.30948882 591.55678972 -382.62255859 589.74755859 C-391.09275511 585.11207698 -398.89021895 579.89403379 -406.58984375 574.07421875 C-407.89501953 573.09001953 -407.89501953 573.09001953 -409.2265625 572.0859375 C-445.47001295 543.89658715 -469.5991522 505.90769167 -482.58984375 462.07421875 C-482.8125293 461.33123535 -483.03521484 460.58825195 -483.26464844 459.82275391 C-498.10127494 409.22574297 -489.40686814 351.9796013 -464.58984375 306.07421875 C-464.27047852 305.47561035 -463.95111328 304.87700195 -463.62207031 304.26025391 C-439.11500173 258.61739369 -395.21041629 220.73926722 -345.58984375 205.07421875 C-344.92984375 205.07421875 -344.26984375 205.07421875 -343.58984375 205.07421875 C-343.72616211 204.23503906 -343.72616211 204.23503906 -343.86523438 203.37890625 C-352.3301632 149.37700133 -343.16446224 92.10545954 -310.58984375 47.07421875 C-310.12723145 46.42952637 -309.66461914 45.78483398 -309.18798828 45.12060547 C-303.72236884 37.53845914 -298.09919742 30.19584768 -291.71484375 23.35546875 C-290.28676503 21.82238424 -288.89086536 20.25874396 -287.52734375 18.66796875 C-281.20495957 11.32284595 -274.12067897 5.13537819 -266.58984375 -0.92578125 C-265.74389648 -1.60809814 -265.74389648 -1.60809814 -264.88085938 -2.30419922 C-248.00071266 -15.71911257 -228.81008583 -26.49148103 -208.58984375 -33.92578125 C-207.84573242 -34.20357422 -207.10162109 -34.48136719 -206.33496094 -34.76757812 C-194.96207906 -38.9578467 -183.50456236 -41.77321275 -171.58984375 -43.92578125 C-170.81431152 -44.0767627 -170.0387793 -44.22774414 -169.23974609 -44.38330078 C-110.37734125 -55.6875165 -46.00946163 -37.86755356 0 0 Z "
    fill="#FDFEFE"
    transform="translate(752.58984375,144.92578125)"
  />
  <path
    d="M0 0 C4.92223222 4.23615123 9.70290005 8.60203515 14.41015625 13.07421875 C14.94576172 13.58114258 15.48136719 14.08806641 16.03320312 14.61035156 C27.89338238 25.91348316 37.55113963 38.32378179 46.41015625 52.07421875 C47.51653442 51.97246338 47.51653442 51.97246338 48.64526367 51.86865234 C95.65816394 47.86586648 139.02434498 55.80015866 176.23925781 86.58740234 C180.11945123 89.92680604 183.80588656 93.44028918 187.41015625 97.07421875 C187.89709961 97.56390137 188.38404297 98.05358398 188.88574219 98.55810547 C216.23702105 126.41452884 229.6988756 162.66581296 232.41015625 201.07421875 C233.46589844 201.42033203 233.46589844 201.42033203 234.54296875 201.7734375 C247.67159771 206.10965568 260.4859578 210.44756007 272.62744141 217.11230469 C274.42560663 218.08255544 276.24442389 218.99347589 278.078125 219.89453125 C321.6260244 241.59955787 354.37353994 282.02940176 373.41015625 326.07421875 C374.16232422 327.77771484 374.16232422 327.77771484 374.9296875 329.515625 C378.60565131 338.50670272 380.94741444 347.75773184 383.16015625 357.19921875 C383.4540625 358.44968994 383.74796875 359.70016113 384.05078125 360.98852539 C387.18888588 374.81852296 388.7269355 388.02596797 388.6159668 402.16943359 C388.59767773 404.57139769 388.59545837 406.97297327 388.59570312 409.375 C388.56792462 422.17825951 388.16089875 434.8554005 385.66015625 447.44921875 C385.3979126 448.78956177 385.3979126 448.78956177 385.13037109 450.15698242 C383.46496308 458.34292339 381.1761975 466.19961339 378.41015625 474.07421875 C378.19665527 474.70038086 377.9831543 475.32654297 377.76318359 475.97167969 C368.82896781 502.03370123 355.4091947 525.26133063 337.41015625 546.07421875 C336.59546875 547.01910156 335.78078125 547.96398437 334.94140625 548.9375 C332.80383891 551.35731655 330.62594193 553.72596762 328.41015625 556.07421875 C327.2809375 557.28271484 327.2809375 557.28271484 326.12890625 558.515625 C320.37696151 564.48233391 314.17526828 569.60395923 307.609375 574.62890625 C307.06571289 575.04503174 306.52205078 575.46115723 305.96191406 575.88989258 C304.53896701 576.97590834 303.11336373 578.05844148 301.6875 579.140625 C299.48357211 581.01188453 297.9586858 582.79290118 296.28515625 585.13671875 C281.91548434 603.95635358 263.3948517 614.24812711 240.41015625 619.07421875 C239.7169171 619.24770678 239.02367795 619.42119482 238.30943155 619.59994006 C234.33829707 620.24955911 230.45328891 620.21405329 226.4358139 620.20564651 C225.07154724 620.20872547 225.07154724 620.20872547 223.67971963 620.21186662 C220.61568989 620.21754517 217.55170498 620.21607829 214.4876709 620.21466064 C212.27505425 620.21724382 210.06243806 620.22025685 207.84982252 620.22366405 C201.75621155 620.23174349 195.66261236 620.23352415 189.56899667 620.23426151 C183.67561416 620.23592074 177.7822378 620.24223792 171.8888585 620.24833992 C156.09450516 620.26440281 140.30015279 620.27030448 124.50579275 620.27508867 C117.02925431 620.27742532 109.55271664 620.28102816 102.07617879 620.28478405 C76.46976514 620.29762265 50.86335192 620.30833933 25.25693512 620.31178665 C23.64927446 620.31200828 22.0416138 620.31223007 20.43395314 620.312452 C18.82244625 620.31267264 17.21093936 620.31289312 15.59943247 620.31311345 C12.36658128 620.313556 9.13373009 620.31400311 5.90087891 620.31445312 C4.69853915 620.31461721 4.69853915 620.31461721 3.47190969 620.31478461 C-22.49037787 620.31841132 -48.45263744 620.33431518 -74.41491429 620.35764349 C-101.87946913 620.38227638 -129.34400799 620.39596119 -156.8085742 620.39715457 C-159.82772033 620.39732601 -162.84686645 620.39754144 -165.86601257 620.397789 C-166.6093823 620.39784477 -167.35275202 620.39790054 -168.1186481 620.397958 C-180.05050669 620.39910575 -191.98233644 620.41010471 -203.91418532 620.42467606 C-215.92593311 620.43909036 -227.9376442 620.44225042 -239.94939828 620.43423608 C-246.44911891 620.43019025 -252.94876242 620.43120369 -259.44847298 620.44529343 C-265.41149108 620.45810083 -271.37434103 620.45677514 -277.33735913 620.44470271 C-279.48225444 620.44275745 -281.62716195 620.44576926 -283.77204019 620.45454708 C-301.08753554 620.52086102 -318.9600293 619.87426201 -335.40234375 613.88671875 C-336.26359863 613.58556152 -337.12485352 613.2844043 -338.01220703 612.97412109 C-350.39523347 608.50852515 -361.62273521 602.22549351 -372.8046875 595.35546875 C-376.02695966 593.38802776 -379.30948882 591.55678972 -382.62255859 589.74755859 C-391.09275511 585.11207698 -398.89021895 579.89403379 -406.58984375 574.07421875 C-407.89501953 573.09001953 -407.89501953 573.09001953 -409.2265625 572.0859375 C-445.47001295 543.89658715 -469.5991522 505.90769167 -482.58984375 462.07421875 C-482.8125293 461.33123535 -483.03521484 460.58825195 -483.26464844 459.82275391 C-498.10127494 409.22574297 -489.40686814 351.9796013 -464.58984375 306.07421875 C-464.27047852 305.47561035 -463.95111328 304.87700195 -463.62207031 304.26025391 C-439.11500173 258.61739369 -395.21041629 220.73926722 -345.58984375 205.07421875 C-344.92984375 205.07421875 -344.26984375 205.07421875 -343.58984375 205.07421875 C-343.72616211 204.23503906 -343.72616211 204.23503906 -343.86523438 203.37890625 C-352.3301632 149.37700133 -343.16446224 92.10545954 -310.58984375 47.07421875 C-310.12723145 46.42952637 -309.66461914 45.78483398 -309.18798828 45.12060547 C-303.72236884 37.53845914 -298.09919742 30.19584768 -291.71484375 23.35546875 C-290.28676503 21.82238424 -288.89086536 20.25874396 -287.52734375 18.66796875 C-281.20495957 11.32284595 -274.12067897 5.13537819 -266.58984375 -0.92578125 C-265.74389648 -1.60809814 -265.74389648 -1.60809814 -264.88085938 -2.30419922 C-248.00071266 -15.71911257 -228.81008583 -26.49148103 -208.58984375 -33.92578125 C-207.84573242 -34.20357422 -207.10162109 -34.48136719 -206.33496094 -34.76757812 C-194.96207906 -38.9578467 -183.50456236 -41.77321275 -171.58984375 -43.92578125 C-170.81431152 -44.0767627 -170.0387793 -44.22774414 -169.23974609 -44.38330078 C-110.37734125 -55.6875165 -46.00946163 -37.86755356 0 0 Z M-93.8046875 25.54296875 C-100.36556841 34.84592461 -103.94945493 44.13374118 -103.71484375 55.44921875 C-103.70582031 56.28066406 -103.69679688 57.11210937 -103.6875 57.96875 C-103.66410595 60.00403212 -103.628241 62.03916439 -103.58984375 64.07421875 C-104.85272217 64.32389404 -106.11560059 64.57356934 -107.41674805 64.83081055 C-112.92739817 66.05985276 -118.09148676 67.96046726 -123.359375 69.96875 C-124.38251801 70.35296112 -125.40566101 70.73717224 -126.45980835 71.13302612 C-128.64607234 71.95456926 -130.83135185 72.77873633 -133.01571655 73.60531616 C-138.72598092 75.7659164 -144.44340411 77.90741929 -150.16015625 80.05078125 C-151.29972275 80.47858383 -152.43928925 80.90638641 -153.61338806 81.34715271 C-163.97307719 85.2310919 -174.36550155 89.02013884 -184.77734375 92.76171875 C-185.54881744 93.03915924 -186.32029114 93.31659973 -187.11514282 93.60244751 C-191.27203117 95.09680878 -195.43019515 96.5875544 -199.58984375 98.07421875 C-200.02296875 97.17123047 -200.02296875 97.17123047 -200.46484375 96.25 C-205.67998956 86.16376314 -216.15221455 80.48018196 -226.58984375 77.07421875 C-237.38399425 74.02440263 -250.7277906 74.91844449 -260.83203125 79.53125 C-273.21983204 86.46210172 -283.24813756 97.45975211 -287.23046875 111.30078125 C-289.25582978 126.93128483 -288.18748812 140.7004604 -278.671875 153.63671875 C-275.0412043 157.88726005 -270.87744745 161.50265349 -266.58984375 165.07421875 C-268.71755927 172.50941099 -271.21058677 179.76756197 -273.87109375 187.02734375 C-274.28159973 188.1544426 -274.69210571 189.28154144 -275.11505127 190.4427948 C-276.43725567 194.07093726 -277.76347173 197.69759806 -279.08984375 201.32421875 C-279.99664454 203.80989505 -280.90321951 206.29565373 -281.80957031 208.78149414 C-284.3989876 215.88053637 -286.9935434 222.97769136 -289.58984375 230.07421875 C-289.93619873 231.02117615 -290.28255371 231.96813354 -290.6394043 232.94378662 C-293.94834322 241.99016086 -297.26259249 251.03456044 -300.58984375 260.07421875 C-301.52795898 260.06116699 -302.46607422 260.04811523 -303.43261719 260.03466797 C-304.6755957 260.0245166 -305.91857422 260.01436523 -307.19921875 260.00390625 C-308.42608398 259.99085449 -309.65294922 259.97780273 -310.91699219 259.96435547 C-323.36659517 260.3367512 -333.64651928 265.72152823 -342.7109375 274.03515625 C-351.49365208 283.56650138 -356.35918546 294.99093373 -356.15234375 307.88671875 C-356.14283691 308.84795654 -356.13333008 309.80919434 -356.12353516 310.79956055 C-355.89113454 318.77708101 -354.47051568 325.01098519 -350.58984375 332.07421875 C-350.14382813 332.89921875 -349.6978125 333.72421875 -349.23828125 334.57421875 C-342.56180457 345.61464946 -331.63016745 353.12615813 -319.21484375 356.44921875 C-315.23077854 357.14095109 -311.33876711 357.13678524 -307.30078125 357.11328125 C-306.04313965 357.1076416 -304.78549805 357.10200195 -303.48974609 357.09619141 C-302.05429443 357.08531494 -302.05429443 357.08531494 -300.58984375 357.07421875 C-299.87060841 359.02038495 -299.15137417 360.96655156 -298.43214417 362.91271973 C-297.77610447 364.6878725 -297.12004705 366.46301873 -296.463974 368.23815918 C-294.59666956 373.29062128 -292.72969447 378.3432047 -290.86328125 383.39599609 C-287.21895994 393.26096865 -283.57258588 403.125156 -279.91477966 412.98513794 C-278.34846646 417.20762214 -276.78366061 421.43066423 -275.21896362 425.65374756 C-274.46738025 427.68092428 -273.7150428 429.70782159 -272.96194458 431.73443604 C-271.90892941 434.56835141 -270.85848946 437.403209 -269.80859375 440.23828125 C-269.49582993 441.07790405 -269.1830661 441.91752686 -268.86082458 442.78259277 C-268.57481888 443.55639282 -268.28881317 444.33019287 -267.99414062 445.12744141 C-267.74563354 445.7969986 -267.49712646 446.46655579 -267.24108887 447.15640259 C-266.57748037 449.11062699 -266.06201818 451.06593939 -265.58984375 453.07421875 C-266.27046875 453.25984375 -266.95109375 453.44546875 -267.65234375 453.63671875 C-275.94193951 457.69332944 -282.20335239 466.85004676 -285.44140625 475.29516602 C-287.44296552 481.37073238 -288.13669355 487.00803003 -288.08984375 493.38671875 C-288.08126343 494.75812012 -288.08126343 494.75812012 -288.07250977 496.15722656 C-287.72727098 509.32047247 -282.61373154 518.86721284 -273.4921875 528.2265625 C-262.5996499 538.54277536 -251.04413182 541.697297 -236.4296875 541.3828125 C-223.21451547 540.76186174 -211.79480903 534.96542648 -202.90234375 525.26171875 C-200.29980553 522.53156718 -200.29980553 522.53156718 -199.58984375 519.07421875 C-179.0845425 526.23869372 -158.69938014 533.70149937 -138.35429382 541.30834961 C-135.79584266 542.26458969 -133.23682948 543.21931291 -130.67773438 544.17382812 C-127.17382948 545.48079991 -123.6732213 546.79623475 -120.17382812 548.11523438 C-118.44278031 548.76321314 -116.71166313 549.41100664 -114.98046875 550.05859375 C-114.17937683 550.36259094 -113.37828491 550.66658813 -112.55291748 550.97979736 C-108.19015623 552.60661854 -108.19015623 552.60661854 -103.58984375 553.07421875 C-103.61304688 554.06421875 -103.63625 555.05421875 -103.66015625 556.07421875 C-103.77640876 563.02559051 -103.84469576 569.42240533 -101.58984375 576.07421875 C-101.35652344 576.83734375 -101.12320313 577.60046875 -100.8828125 578.38671875 C-96.67325355 590.68862619 -87.49323155 599.51088362 -76.09765625 605.3515625 C-64.47191799 610.70702553 -50.54589193 611.03920073 -38.40234375 606.94921875 C-32.65771549 604.74875492 -28.08201789 602.25693201 -23.58984375 598.07421875 C-22.92726563 597.52378906 -22.2646875 596.97335937 -21.58203125 596.40625 C-13.72332751 589.39915484 -7.22825263 577.63970781 -6.43701172 567.02368164 C-6.39453102 564.8906134 -6.41410923 562.76952006 -6.46484375 560.63671875 C-6.47837891 559.5394043 -6.47837891 559.5394043 -6.4921875 558.41992188 C-6.51548222 556.63787577 -6.55134185 554.85600116 -6.58984375 553.07421875 C-5.97546448 552.89595047 -5.36108521 552.71768219 -4.72808838 552.53401184 C1.15148091 550.802877 6.92303119 548.8851397 12.67578125 546.7734375 C13.53617004 546.46005432 14.39655884 546.14667114 15.28302002 545.8237915 C17.12363824 545.15284651 18.96377656 544.4805837 20.8034668 543.80709839 C23.70042976 542.74698102 26.59907038 541.69156044 29.49804688 540.63696289 C39.22106669 537.09533553 48.92817553 533.51514491 58.61328125 529.87109375 C61.21495828 528.89648662 63.81687119 527.92251151 66.41882324 526.94863892 C68.87514212 526.02488658 71.3266835 525.08916986 73.77832031 524.15307617 C75.26997032 523.59367274 76.76182084 523.03480356 78.25390625 522.4765625 C78.92480286 522.21595032 79.59569946 521.95533813 80.28692627 521.68682861 C82.88668405 520.72544094 84.94840758 520.03002786 87.73413086 520.29663086 C90.33902389 521.50516462 91.68162242 523.48302362 93.47265625 525.69921875 C100.81947923 534.11795524 110.18706064 540.38248658 121.5390625 541.23388672 C130.71660876 541.68936214 139.89455078 541.9549467 148.41015625 538.07421875 C149.52003906 537.58115234 149.52003906 537.58115234 150.65234375 537.078125 C160.81371679 531.99743848 168.45265772 524.23709074 173.41015625 514.07421875 C174.02890625 512.89859375 174.02890625 512.89859375 174.66015625 511.69921875 C179.20803597 501.59281938 179.33442936 487.50222658 175.84765625 477.01171875 C174.7572714 474.49742338 174.7572714 474.49742338 173.41015625 472.07421875 C172.91257812 471.14351562 172.415 470.2128125 171.90234375 469.25390625 C168.1022135 462.76717229 163.56641264 457.45005068 157.41015625 453.07421875 C156.75015625 453.07421875 156.09015625 453.07421875 155.41015625 453.07421875 C160.48084171 437.43487482 166.05844755 422.02295 171.84765625 406.63671875 C176.60045364 393.97048057 181.35316206 381.30427229 186.0078125 368.6015625 C186.35251083 367.66760147 186.69720917 366.73364044 187.05235291 365.77137756 C187.36386795 364.91732834 187.675383 364.06327911 187.99633789 363.18334961 C188.27063126 362.43484238 188.54492462 361.68633514 188.82752991 360.91514587 C189.51073443 359.07824203 189.51073443 359.07824203 189.41015625 357.07421875 C190.48652344 357.13222656 191.56289063 357.19023437 192.671875 357.25 C207.76277773 357.81573531 219.82506947 353.8788431 231.16015625 343.57421875 C231.90265625 342.74921875 232.64515625 341.92421875 233.41015625 341.07421875 C234.21453125 340.22859375 235.01890625 339.38296875 235.84765625 338.51171875 C245.60246874 326.62013781 246.76573009 312.8102413 245.41015625 298.07421875 C242.9401879 285.22796178 234.05635467 275.11369839 223.79296875 267.5625 C215.18969465 262.18897962 206.63523037 259.88684941 196.59765625 260.01171875 C195.90478516 260.01623047 195.21191406 260.02074219 194.49804688 260.02539062 C192.80204557 260.03708719 191.10608922 260.05501951 189.41015625 260.07421875 C189.26441162 259.12639526 189.26441162 259.12639526 189.11572266 258.15942383 C188.13604516 253.87562295 186.62475645 249.83574807 185.12109375 245.7109375 C184.78546417 244.78221832 184.44983459 243.85349915 184.10403442 242.89663696 C183.00156303 239.85026388 181.89354076 236.80594491 180.78515625 233.76171875 C180.02140831 231.65587069 179.25773719 229.54999476 178.49414062 227.4440918 C172.76617748 211.67553948 166.91653052 195.95381932 160.97021484 180.26635742 C160.66888641 179.46934418 160.36755798 178.67233093 160.05709839 177.85116577 C159.49882833 176.37524434 158.93868548 174.90002928 158.37625122 173.4256897 C157.20919978 170.33917908 156.09826421 167.30616295 155.41015625 164.07421875 C156.00183594 163.79449219 156.59351563 163.51476562 157.203125 163.2265625 C166.97923172 158.12222359 173.34874116 147.65509966 176.75 137.421875 C178.97709749 126.12825047 178.95363927 113.35515906 173.41015625 103.07421875 C172.92417969 102.15511719 172.43820312 101.23601562 171.9375 100.2890625 C165.59953399 89.39615165 157.19487311 82.41503901 145.41015625 78.07421875 C144.49363281 77.70683594 143.57710937 77.33945313 142.6328125 76.9609375 C138.54736682 75.83682093 134.81360457 75.7723599 130.59765625 75.82421875 C129.79448975 75.83243652 128.99132324 75.8406543 128.16381836 75.84912109 C113.84554132 76.11979896 104.08276779 81.24488263 93.40625 90.828125 C91.31358476 93.1828853 90.49456016 95.15071421 89.41015625 98.07421875 C75.30256581 93.47985116 61.35742872 88.55054499 47.47265625 83.32421875 C43.72714422 81.92031971 39.98074492 80.51879531 36.234375 79.1171875 C35.31561584 78.77304306 34.39685669 78.42889862 33.45025635 78.07432556 C27.63974055 75.89999022 21.8210124 73.74975015 15.9921875 71.625 C15.28056961 71.36546539 14.56895172 71.10593079 13.83576965 70.83853149 C10.55216727 69.64198958 7.26719643 68.44934577 3.98071289 67.26074219 C2.85141357 66.84985352 1.72211426 66.43896484 0.55859375 66.015625 C-0.41932129 65.66185791 -1.39723633 65.30809082 -2.40478516 64.94360352 C-4.58984375 64.07421875 -4.58984375 64.07421875 -5.58984375 63.07421875 C-5.75081772 60.76394417 -5.86775955 58.45055883 -5.96484375 56.13671875 C-6.84239268 40.81489538 -12.59771869 29.02867991 -23.7265625 18.45703125 C-27.75250339 15.10665752 -31.71496103 12.93169014 -36.58984375 11.07421875 C-37.66878906 10.60048828 -37.66878906 10.60048828 -38.76953125 10.1171875 C-58.29866713 2.71773982 -80.7063716 9.83574804 -93.8046875 25.54296875 Z "
    fill="#FEFEFE"
    transform="translate(752.58984375,144.92578125)"
  />
  <path
    d="M0 0 C2.01044543 1.42211741 3.77879775 2.93390915 5.578125 4.61328125 C6.24070312 5.1753125 6.90328125 5.73734375 7.5859375 6.31640625 C19.53326147 17.12805303 22.60339112 30.30934132 23.4296875 45.61328125 C23.47867187 46.60328125 23.52765625 47.59328125 23.578125 48.61328125 C35.1622448 53.69172424 47.07714424 57.90385009 58.953125 62.23828125 C61.14811352 63.04135868 63.34301863 63.84466412 65.5378418 64.64819336 C69.87784107 66.23681233 74.21831498 67.82412479 78.55908203 69.41064453 C83.81711527 71.33340855 89.07164035 73.26551673 94.32421875 75.203125 C95.72671134 75.7199271 97.12921723 76.23669312 98.53173828 76.75341797 C101.03725603 77.67652804 103.54201367 78.60161205 106.04638672 79.52783203 C107.13580566 79.92856934 108.22522461 80.32930664 109.34765625 80.7421875 C110.73368042 81.2537439 110.73368042 81.2537439 112.14770508 81.77563477 C114.27992571 82.51050659 116.38130432 83.11031734 118.578125 83.61328125 C118.82046875 82.87851563 119.0628125 82.14375 119.3125 81.38671875 C123.67550401 71.8258149 135.25603752 66.32444404 144.578125 62.61328125 C159.41794603 59.19951999 173.42866401 61.47147507 186.390625 69.36328125 C196.20830737 76.47078073 204.06996465 87.600141 206.578125 99.61328125 C208.0641819 115.66833907 205.66368342 128.23823966 195.640625 141.22265625 C192.84240473 144.46604793 190.02318859 147.0639342 186.578125 149.61328125 C185.918125 149.61328125 185.258125 149.61328125 184.578125 149.61328125 C190.17275605 165.9633242 196.07343011 182.1832893 202.140625 198.36328125 C202.96053798 200.5545934 203.7802 202.74599948 204.59960938 204.9375 C205.20257339 206.54993591 205.20257339 206.54993591 205.81771851 208.19494629 C207.37107978 212.35065414 208.92273869 216.50699704 210.47442627 220.66333008 C211.55395955 223.54869215 212.63966343 226.43167488 213.72607422 229.31445312 C214.37357448 231.0441952 215.02088424 232.7740086 215.66796875 234.50390625 C215.96554581 235.28787781 216.26312286 236.07184937 216.56971741 236.87957764 C217.70367353 239.92447923 218.578125 242.33590604 218.578125 245.61328125 C219.51011719 245.566875 220.44210937 245.52046875 221.40234375 245.47265625 C234.76200198 245.09442528 245.43316305 247.94588261 256.578125 255.61328125 C257.485625 256.23203125 258.393125 256.85078125 259.328125 257.48828125 C267.50720651 265.21296934 274.42940576 276.86286092 274.87890625 288.2578125 C274.89340403 289.98041217 274.89705759 291.70313258 274.890625 293.42578125 C274.90673828 294.27720703 274.92285156 295.12863281 274.93945312 296.00585938 C274.94774244 306.88973473 270.59738768 318.96039148 263.203125 327.1171875 C254.76732321 334.88380309 243.38546995 342.80121568 231.46875 342.7109375 C230.71464844 342.70771484 229.96054687 342.70449219 229.18359375 342.70117188 C228.40628906 342.69279297 227.62898437 342.68441406 226.828125 342.67578125 C226.03535156 342.67126953 225.24257813 342.66675781 224.42578125 342.66210938 C222.47652992 342.6503669 220.52731762 342.63243271 218.578125 342.61328125 C218.34165253 343.45089745 218.34165253 343.45089745 218.10040283 344.30543518 C215.89656245 351.89412452 213.22559775 359.28915002 210.5 366.703125 C210.00514513 368.05570113 209.51054191 369.40836935 209.01617432 370.76112366 C207.71942523 374.30731032 206.41919699 377.85221134 205.1182251 381.39685059 C203.81750757 384.9428005 202.52027724 388.49002542 201.22265625 392.03710938 C193.54514296 413.01582297 193.54514296 413.01582297 190.31835938 421.71142578 C189.98950745 422.59866837 189.66065552 423.48591095 189.32183838 424.40003967 C188.735355 425.98037994 188.14709898 427.56006417 187.55657959 429.13890076 C186.39278758 432.27440977 185.35027977 435.36035557 184.578125 438.61328125 C185.46564453 439.03287109 185.46564453 439.03287109 186.37109375 439.4609375 C196.14103707 444.56205835 202.53594843 455.03628311 205.9140625 465.2734375 C208.39727444 477.76253285 207.63229422 490.29182422 201.578125 501.61328125 C201.14371094 502.42925781 200.70929687 503.24523437 200.26171875 504.0859375 C193.51441297 515.29300094 182.81108573 522.77847456 170.265625 526.25390625 C154.12940248 528.41165694 140.78330949 526.4615582 127.578125 516.61328125 C123.79967786 513.31660332 120.40509363 509.77058805 117.578125 505.61328125 C111.11738027 506.91570396 105.13161 508.70775058 98.97265625 511.03515625 C98.06627914 511.37215042 97.15990204 511.70914459 96.22605896 512.05635071 C93.27891347 513.15337707 90.33483783 514.25841146 87.390625 515.36328125 C85.34692719 516.12493203 83.30297896 516.88591118 81.25878906 517.64624023 C77.08446505 519.19952422 72.91116055 520.75549601 68.73876953 522.31396484 C60.272728 525.47524324 51.80063243 528.62003786 43.32382202 531.75231934 C40.85907859 532.66432775 38.39593108 533.58055315 35.93286133 534.49707031 C34.44489822 535.04772603 32.9568653 535.5981932 31.46875 536.1484375 C30.45644569 536.52685539 30.45644569 536.52685539 29.4236908 536.91291809 C24.8059952 538.61328125 24.8059952 538.61328125 22.578125 538.61328125 C22.62453125 539.6290625 22.6709375 540.64484375 22.71875 541.69140625 C23.18123541 556.16261011 19.84161683 568.03029697 10.3203125 579.28125 C4.9800103 584.94799701 -0.17328937 588.78736673 -7.421875 591.61328125 C-8.50275391 592.08894531 -8.50275391 592.08894531 -9.60546875 592.57421875 C-20.09496055 596.53731964 -34.69412974 596.47734736 -44.94140625 591.93359375 C-57.48089424 585.25903164 -65.78008202 577.82119969 -71.421875 564.61328125 C-71.95167969 563.41445312 -71.95167969 563.41445312 -72.4921875 562.19140625 C-74.44606082 556.77310207 -74.55621056 551.4409196 -74.484375 545.73828125 C-74.47986328 545.04992187 -74.47535156 544.3615625 -74.47070312 543.65234375 C-74.45903836 541.9726179 -74.44110771 540.2929375 -74.421875 538.61328125 C-74.96896118 538.50565964 -75.51604736 538.39803802 -76.07971191 538.28715515 C-81.68938918 537.12113939 -86.91959565 535.48893489 -92.265625 533.4453125 C-93.09703003 533.13333923 -93.92843506 532.82136597 -94.78503418 532.49993896 C-96.57137023 531.82897916 -98.35670569 531.15535036 -100.14111328 530.47927856 C-104.90734021 528.67358366 -109.68089668 526.88741517 -114.453125 525.09765625 C-115.43410156 524.72906998 -116.41507813 524.3604837 -117.42578125 523.98072815 C-128.06898464 519.98513056 -138.74316058 516.07526734 -149.421875 512.17578125 C-151.2011795 511.52516733 -152.98047658 510.87453312 -154.75976562 510.22387695 C-156.39709293 509.62569751 -158.03446049 509.02762821 -159.671875 508.4296875 C-160.41675171 508.15751404 -161.16162842 507.88534058 -161.92907715 507.60491943 C-164.75088181 506.57607931 -167.57231486 505.56313463 -170.421875 504.61328125 C-170.70160156 505.20496094 -170.98132813 505.79664063 -171.26953125 506.40625 C-176.23034967 515.90747851 -185.59227756 521.49459568 -195.421875 525.05078125 C-208.45412298 528.61913486 -222.47066303 528.21569905 -234.421875 521.61328125 C-244.45471548 515.32520238 -251.93651038 506.54853066 -256.421875 495.61328125 C-256.78925781 494.73542969 -257.15664063 493.85757812 -257.53515625 492.953125 C-258.74741807 488.38711683 -258.75110335 484.06729272 -258.734375 479.36328125 C-258.75048828 478.47253906 -258.76660156 477.58179688 -258.78320312 476.6640625 C-258.79268363 463.5999209 -253.76909587 452.99316217 -244.796875 443.55078125 C-242.2274803 440.98765337 -239.79353858 439.906338 -236.421875 438.61328125 C-241.93419524 422.64337741 -247.70045885 406.76854637 -253.50195312 390.90209961 C-254.79547455 387.36444702 -256.08677664 383.82598911 -257.37742043 380.2872858 C-258.39072875 377.50967643 -259.40513961 374.73247069 -260.41987228 371.95538139 C-260.89612542 370.65164064 -261.37207272 369.3477881 -261.84767532 368.04380989 C-264.95307397 359.53222766 -268.14235745 351.05920961 -271.421875 342.61328125 C-272.84886719 342.66005005 -272.84886719 342.66005005 -274.3046875 342.70776367 C-290.52266101 343.15578049 -302.48147955 338.87005092 -314.38671875 327.8046875 C-317.82271772 324.10488823 -320.18574965 320.11951562 -322.421875 315.61328125 C-322.83566406 314.85144531 -323.24945313 314.08960938 -323.67578125 313.3046875 C-328.33007936 303.16902089 -328.02908768 289.63465278 -325.57421875 278.91015625 C-324.41931215 275.9191439 -323.10768008 273.33839334 -321.421875 270.61328125 C-320.82890625 269.65164063 -320.2359375 268.69 -319.625 267.69921875 C-312.54163087 257.18749896 -302.52631614 249.59529889 -290.171875 246.30078125 C-286.13729905 245.56062869 -282.22127561 245.54405432 -278.125 245.5703125 C-276.24022949 245.57961792 -276.24022949 245.57961792 -274.31738281 245.58911133 C-273.36186523 245.5970874 -272.40634766 245.60506348 -271.421875 245.61328125 C-270.99592041 244.43040527 -270.56996582 243.2475293 -270.13110352 242.02880859 C-268.46420075 237.40146046 -266.79469094 232.77505575 -265.12466431 228.14883423 C-264.36564821 226.04506058 -263.60732484 223.94103688 -262.84970093 221.83676147 C-258.46337862 209.65533181 -254.02401501 197.4982475 -249.4375 185.390625 C-248.64098857 183.27758418 -247.84467976 181.16446698 -247.04858398 179.05126953 C-245.89731542 175.99586945 -244.74098193 172.94293877 -243.56765747 169.89593506 C-242.48097904 167.07350345 -241.41266158 164.24472864 -240.34765625 161.4140625 C-240.01940857 160.57761703 -239.69116089 159.74117157 -239.35296631 158.87937927 C-239.06673401 158.10876663 -238.78050171 157.33815399 -238.4855957 156.54418945 C-238.10284233 155.54437798 -238.10284233 155.54437798 -237.71235657 154.52436829 C-237.32213469 151.95708673 -238.05410351 150.7739199 -239.421875 148.61328125 C-241.12625504 146.9949982 -241.12625504 146.9949982 -243.109375 145.48828125 C-251.22965927 138.56172298 -257.68541523 129.06867313 -258.62890625 118.23632812 C-258.77041204 115.50526645 -258.83471333 112.78535358 -258.859375 110.05078125 C-258.86960693 109.17639404 -258.87983887 108.30200684 -258.89038086 107.40112305 C-258.7149056 94.3116503 -253.53210081 83.78343519 -244.609375 74.30078125 C-235.22811139 65.46283407 -224.43262102 61.01917284 -211.609375 61.17578125 C-210.73498779 61.18335449 -209.86060059 61.19092773 -208.9597168 61.19873047 C-194.57761687 61.56323841 -183.64743635 67.80339313 -173.421875 77.61328125 C-170.421875 81.09715222 -170.421875 81.09715222 -170.421875 83.61328125 C-149.91657375 76.44880628 -129.53141139 68.98600063 -109.18632507 61.37915039 C-106.62787391 60.42291031 -104.06886073 59.46818709 -101.50976562 58.51367188 C-98.00586073 57.20670009 -94.50525255 55.89126525 -91.00585938 54.57226562 C-89.27481156 53.92428686 -87.54369438 53.27649336 -85.8125 52.62890625 C-85.01140808 52.32490906 -84.21031616 52.02091187 -83.38494873 51.70770264 C-77.76224344 49.61328125 -77.76224344 49.61328125 -74.421875 49.61328125 C-74.50888672 47.89044922 -74.50888672 47.89044922 -74.59765625 46.1328125 C-75.13856591 30.87025476 -71.80152292 19.28583268 -61.421875 7.61328125 C-44.77944207 -8.55918264 -20.20114116 -11.56678244 0 0 Z M-74.36865234 68.90405273 C-75.14245239 69.19013397 -75.91625244 69.47621521 -76.71350098 69.77096558 C-77.55312378 70.08889069 -78.39274658 70.4068158 -79.2578125 70.734375 C-80.59531555 71.2318071 -80.59531555 71.2318071 -81.95983887 71.73928833 C-84.90778305 72.83715018 -87.85226907 73.94400046 -90.796875 75.05078125 C-92.84105525 75.81374878 -94.88549248 76.57602812 -96.93017578 77.33764648 C-101.21876565 78.93567118 -105.50620537 80.53673097 -109.79296875 82.13964844 C-119.59095697 85.79996203 -129.40448383 89.4182294 -139.21710205 93.03909302 C-144.13753427 94.85513514 -149.05702278 96.67372938 -153.9765625 98.4921875 C-155.62743676 99.10230749 -157.27831515 99.71241631 -158.92919922 100.32250977 C-160.08178223 100.74846436 -161.23436523 101.17441895 -162.421875 101.61328125 C-162.49643921 103.21961426 -162.49643921 103.21961426 -162.57250977 104.85839844 C-162.64819649 106.29233908 -162.7243098 107.72625725 -162.80078125 109.16015625 C-162.83224243 109.86253418 -162.86370361 110.56491211 -162.89611816 111.28857422 C-163.30906701 118.70881568 -164.92492753 126.19245622 -168.61328125 132.72265625 C-169.70083901 135.26554492 -169.44366951 136.03285538 -168.421875 138.61328125 C-166.68811768 140.60192228 -164.96126487 142.42307063 -163.07421875 144.25390625 C-162.54292862 144.78095154 -162.01163849 145.30799683 -161.46424866 145.85101318 C-159.76954675 147.52895312 -158.06470283 149.19614853 -156.359375 150.86328125 C-155.20699755 152.0006087 -154.05529648 153.13862191 -152.90429688 154.27734375 C-150.08460316 157.06400117 -147.25576912 159.84106917 -144.421875 162.61328125 C-146.11773626 166.24631209 -148.15987988 168.55877171 -151.046875 171.36328125 C-151.86414063 172.1625 -152.68140625 172.96171875 -153.5234375 173.78515625 C-154.14992188 174.3884375 -154.77640625 174.99171875 -155.421875 175.61328125 C-159.33159476 174.0440274 -161.83786313 171.3583799 -164.66796875 168.3515625 C-165.67974961 167.30476899 -166.69213786 166.25856227 -167.70507812 165.21289062 C-169.28948871 163.5664139 -170.86876715 161.91583705 -172.43774414 160.25463867 C-173.95941857 158.64841358 -175.4992827 157.06160445 -177.04296875 155.4765625 C-177.50771103 154.9745784 -177.97245331 154.4725943 -178.45127869 153.95539856 C-179.93174684 152.38419866 -179.93174684 152.38419866 -182.421875 150.61328125 C-186.37381605 150.79666347 -189.52654664 152.50217935 -193.109375 154.11328125 C-198.79915361 156.37552356 -203.78189574 157.06497287 -209.87890625 157.26953125 C-210.70442993 157.30594727 -211.52995361 157.34236328 -212.38049316 157.37988281 C-214.39389138 157.46732682 -216.40785145 157.54167152 -218.421875 157.61328125 C-218.65609665 158.24966019 -218.8903183 158.88603912 -219.13163757 159.54170227 C-221.40017571 165.70501872 -223.66949972 171.8680452 -225.93927097 178.03090763 C-227.38528147 181.95768171 -228.82971643 185.88503131 -230.27301407 189.81280327 C-234.71478441 201.89916781 -239.15859973 213.9835748 -243.74609375 226.015625 C-244.36317309 227.64211964 -244.98012274 229.26866349 -245.59692383 230.89526367 C-246.70191382 233.80833377 -247.82244761 236.71475146 -248.9519043 239.6184082 C-249.43992712 240.90291581 -249.92735585 242.18764936 -250.4140625 243.47265625 C-250.83026855 244.54999023 -251.24647461 245.62732422 -251.67529297 246.73730469 C-252.48669701 249.86298803 -252.44201406 251.57072643 -251.421875 254.61328125 C-249.37572436 256.77450086 -249.37572436 256.77450086 -246.796875 258.73828125 C-238.02098802 266.30889619 -234.76309966 273.47586572 -231.421875 284.61328125 C-221.521875 284.61328125 -211.621875 284.61328125 -201.421875 284.61328125 C-201.421875 290.88328125 -201.421875 297.15328125 -201.421875 303.61328125 C-211.321875 303.61328125 -221.221875 303.61328125 -231.421875 303.61328125 C-232.411875 306.91328125 -233.401875 310.21328125 -234.421875 313.61328125 C-238.6501657 322.01753231 -244.61404191 329.30395475 -252.421875 334.61328125 C-251.06053098 341.49907266 -249.02502415 347.83119458 -246.52734375 354.3828125 C-245.95102707 355.91752701 -245.95102707 355.91752701 -245.36306763 357.48324585 C-244.54152449 359.66950984 -243.71735742 361.85478935 -242.89077759 364.03915405 C-240.73017735 369.74941842 -238.58867446 375.46684161 -236.4453125 381.18359375 C-236.01750992 382.32316025 -235.58970734 383.46272675 -235.14894104 384.63682556 C-231.26500185 394.99651469 -227.47595491 405.38893905 -223.734375 415.80078125 C-223.31821426 416.95799179 -223.31821426 416.95799179 -222.89364624 418.13858032 C-221.39928497 422.29546867 -219.90853935 426.45363265 -218.421875 430.61328125 C-217.20733643 430.65646484 -215.99279785 430.69964844 -214.74145508 430.74414062 C-213.12058073 430.8145369 -211.49973233 430.88553236 -209.87890625 430.95703125 C-208.68303894 430.99715332 -208.68303894 430.99715332 -207.4630127 431.03808594 C-201.01231066 431.34126069 -196.02916613 432.80032942 -190.12109375 435.45703125 C-186.39840446 437.08567223 -186.39840446 437.08567223 -182.421875 437.61328125 C-180.15870708 435.88864114 -178.39669249 434.28885499 -176.46484375 432.2421875 C-175.91701736 431.68587143 -175.36919098 431.12955536 -174.80476379 430.55638123 C-173.05839502 428.77642753 -171.33402505 426.97676237 -169.609375 425.17578125 C-168.42912537 423.9654389 -167.24749996 422.75643649 -166.06445312 421.54882812 C-163.16740084 418.58562421 -160.2899089 415.6045695 -157.421875 412.61328125 C-153.78884416 414.30914251 -151.47638454 416.35128613 -148.671875 419.23828125 C-147.87265625 420.05554688 -147.0734375 420.8728125 -146.25 421.71484375 C-145.64671875 422.34132813 -145.0434375 422.9678125 -144.421875 423.61328125 C-145.99112885 427.52300101 -148.67677635 430.02926938 -151.68359375 432.859375 C-152.73038726 433.87115586 -153.77659398 434.88354411 -154.82226562 435.89648438 C-156.46874235 437.48089496 -158.1193192 439.0601734 -159.78051758 440.62915039 C-161.38674267 442.15082482 -162.9735518 443.69068895 -164.55859375 445.234375 C-165.06057785 445.69911728 -165.56256195 446.16385956 -166.07975769 446.64268494 C-167.65095759 448.12315309 -167.65095759 448.12315309 -169.421875 450.61328125 C-169.24070671 454.16360061 -167.94672972 456.92902581 -166.421875 460.11328125 C-163.55697053 466.09587589 -163.19332327 471.89462898 -162.859375 478.42578125 C-162.81619141 479.21404297 -162.77300781 480.00230469 -162.72851562 480.81445312 C-162.62309179 482.7472234 -162.52204406 484.68023151 -162.421875 486.61328125 C-161.90348557 486.80325684 -161.38509613 486.99323242 -160.85099792 487.18896484 C-155.2105989 489.25626128 -149.57083753 491.32529131 -143.93127441 493.39486694 C-140.60794078 494.6138073 -137.28396649 495.83098903 -133.95996094 497.0480957 C-122.87472051 501.11146241 -111.80491385 505.20920123 -100.76953125 509.40625 C-98.79345412 510.15450415 -96.81730026 510.90255567 -94.84106445 511.65039062 C-92.01880032 512.71842893 -89.19847925 513.79051698 -86.38314819 514.87670898 C-83.79073012 515.8767545 -81.19300983 516.86165329 -78.59375 517.84375 C-77.83445694 518.14178024 -77.07516388 518.43981049 -76.29286194 518.74687195 C-72.32859198 520.22733895 -69.46351536 521.17675792 -65.421875 519.61328125 C-62.33548123 516.59587863 -62.33548123 516.59587863 -61.421875 512.61328125 C-60.83792969 512.34257813 -60.25398437 512.071875 -59.65234375 511.79296875 C-57.4381331 510.62188011 -55.67777009 509.31092382 -53.734375 507.73828125 C-48.05257928 503.4027319 -42.41410715 501.01172768 -35.421875 499.61328125 C-35.421875 489.38328125 -35.421875 479.15328125 -35.421875 468.61328125 C-29.151875 468.61328125 -22.881875 468.61328125 -16.421875 468.61328125 C-16.421875 478.84328125 -16.421875 489.07328125 -16.421875 499.61328125 C-11.801875 501.26328125 -7.181875 502.91328125 -2.421875 504.61328125 C3.76367413 508.73698067 8.09236731 513.07223403 12.55859375 518.98828125 C14.46278413 520.8936441 14.46278413 520.8936441 17.00634766 520.46582031 C22.0808205 519.25460642 26.86784789 517.43345688 31.74609375 515.59765625 C32.84289459 515.18983414 33.93969543 514.78201202 35.06973267 514.36183167 C38.63696032 513.03409568 42.20131265 511.69882138 45.765625 510.36328125 C48.2097004 509.45158664 50.65395575 508.54037426 53.09838867 507.62963867 C57.97371552 505.8126121 62.84803154 503.99291073 67.72167969 502.17138672 C73.77554755 499.91036821 79.83520278 497.66544817 85.8984375 495.4296875 C87.5427381 494.82262768 89.18702577 494.21553286 90.83129883 493.60839844 C93.09579957 492.77232105 95.36051354 491.93685554 97.62606812 491.1036377 C99.65920708 490.35546878 101.69107931 489.60396046 103.72265625 488.8515625 C105.39871948 488.23341675 105.39871948 488.23341675 107.10864258 487.6027832 C109.48339165 486.83913827 109.48339165 486.83913827 110.578125 485.61328125 C110.65447655 483.67055853 110.72542316 481.72745685 110.76757812 479.78369141 C111.02008498 469.68952618 112.88971474 461.91075979 117.48608398 452.81689453 C117.83102468 450.31684439 117.83102468 450.31684439 115.39672852 447.86425781 C114.34624093 446.81456273 113.28194835 445.77857067 112.20703125 444.75390625 C111.65071518 444.20466492 111.09439911 443.65542358 110.52122498 443.08953857 C108.73906234 441.3353981 106.94031977 439.59941223 105.140625 437.86328125 C103.93050898 436.67823781 102.72150938 435.49205319 101.51367188 434.3046875 C98.54795575 431.39414447 95.56725089 428.49976943 92.578125 425.61328125 C94.27398626 421.98025041 96.31612988 419.66779079 99.203125 416.86328125 C100.02039063 416.0640625 100.83765625 415.26484375 101.6796875 414.44140625 C102.30617188 413.838125 102.93265625 413.23484375 103.578125 412.61328125 C107.48784476 414.1825351 109.99411313 416.8681826 112.82421875 419.875 C113.83599961 420.92179351 114.84838786 421.96800023 115.86132812 423.01367188 C117.44573871 424.6601486 119.02501715 426.31072545 120.59399414 427.97192383 C122.11566857 429.57814892 123.6555327 431.16495805 125.19921875 432.75 C125.66396103 433.2519841 126.12870331 433.7539682 126.60752869 434.27116394 C128.08799684 435.84236384 128.08799684 435.84236384 130.578125 437.61328125 C134.45398611 437.43434649 137.32315329 435.82209837 140.765625 434.11328125 C148.79013974 430.62829174 156.96456443 430.7185581 165.578125 430.61328125 C169.06450261 422.42586517 172.29076142 414.17430954 175.34375 405.81640625 C175.78144714 404.62513123 176.21914429 403.4338562 176.67010498 402.20648193 C177.82578449 399.06005159 178.97933285 395.91285872 180.13165283 392.76519775 C181.72809848 388.40564618 183.32807587 384.0473907 184.92858887 379.68933105 C185.82644213 377.24306376 186.72269691 374.79620914 187.61730957 372.34875488 C189.79433239 366.40528017 192.00420257 360.47835899 194.29101562 354.57617188 C194.71614441 353.4715863 195.14127319 352.36700073 195.57928467 351.22894287 C196.38115266 349.15226153 197.19192317 347.07898826 198.01300049 345.00982666 C198.36674744 344.09102722 198.72049438 343.17222778 199.08496094 342.22558594 C199.39882751 341.42723328 199.71269409 340.62888062 200.03607178 339.80633545 C200.65384535 337.30692971 200.5102554 335.99626839 199.578125 333.61328125 C197.73637089 332.00028445 197.73637089 332.00028445 195.453125 330.55078125 C185.97318574 323.46720183 183.29076629 314.75120513 179.578125 303.61328125 C169.348125 303.61328125 159.118125 303.61328125 148.578125 303.61328125 C148.578125 297.34328125 148.578125 291.07328125 148.578125 284.61328125 C158.478125 284.61328125 168.378125 284.61328125 178.578125 284.61328125 C180.228125 280.65328125 181.878125 276.69328125 183.578125 272.61328125 C188.02498202 265.10303384 193.25232866 258.49714548 200.578125 253.61328125 C199.13959881 246.20746355 196.82001641 239.37694269 194.17578125 232.3203125 C193.74161896 231.14731598 193.30745667 229.97431946 192.86013794 228.76577759 C191.69776594 225.62826702 190.53041365 222.49270135 189.36071396 219.3579216 C188.1577999 216.13026651 186.96152893 212.90015264 185.76489258 209.67016602 C183.88849084 204.60694596 182.00920396 199.54481019 180.12792969 194.48339844 C176.98219804 186.0149713 173.86841298 177.53501653 170.765625 169.05078125 C169.92579962 166.75780577 169.08595842 164.46483609 168.24609375 162.171875 C167.69002469 160.65237283 167.13399815 159.1328551 166.578125 157.61328125 C165.44375 157.56429687 164.309375 157.5153125 163.140625 157.46484375 C161.61977102 157.38973985 160.09893875 157.31419541 158.578125 157.23828125 C157.83433594 157.20734375 157.09054687 157.17640625 156.32421875 157.14453125 C148.63702832 156.74346045 142.13344627 155.23550422 135.4375 151.3203125 C132.92404228 150.36456492 132.09616819 150.62420708 129.578125 151.61328125 C127.58948397 153.34703857 125.76833562 155.07389138 123.9375 156.9609375 C123.41045471 157.49222763 122.88340942 158.02351776 122.34039307 158.57090759 C120.66245313 160.2656095 118.99525772 161.97045342 117.328125 163.67578125 C116.19079755 164.8281587 115.05278434 165.97985977 113.9140625 167.13085938 C111.12740508 169.95055309 108.35033708 172.77938713 105.578125 175.61328125 C101.94509416 173.91741999 99.63263454 171.87527637 96.828125 168.98828125 C96.02890625 168.17101562 95.2296875 167.35375 94.40625 166.51171875 C93.50132812 165.57199219 93.50132812 165.57199219 92.578125 164.61328125 C94.15031698 160.70138851 96.83923001 158.1752792 99.83984375 155.33203125 C100.88648357 154.31553219 101.932695 153.29859187 102.97851562 152.28125 C104.6262675 150.68945021 106.27760193 149.10187649 107.93676758 147.52197266 C109.5405527 145.99051556 111.12844574 144.44396375 112.71484375 142.89453125 C113.21682785 142.42462769 113.71881195 141.95472412 114.23600769 141.47058105 C115.790999 139.99619456 115.790999 139.99619456 117.578125 137.61328125 C117.5911307 135.43425134 117.5911307 135.43425134 116.578125 133.61328125 C111.85759906 122.99209788 110.72057259 114.15153573 110.578125 102.61328125 C99.56415339 97.81996393 88.28841472 93.74787164 77.015625 89.61328125 C72.91240393 88.10643749 68.80958709 86.59849768 64.70703125 85.08984375 C63.68468384 84.71413239 62.66233643 84.33842102 61.60900879 83.95132446 C55.03087013 81.52955178 48.4694859 79.06701683 41.91796875 76.57421875 C39.51930498 75.66589006 37.12040237 74.75819457 34.72146606 73.85058594 C33.21680201 73.27859133 31.71358299 72.70278003 30.21188354 72.12304688 C28.14737838 71.32629872 26.07832209 70.54270171 24.0078125 69.76171875 C22.27893799 69.09922119 22.27893799 69.09922119 20.51513672 68.42333984 C17.59384012 67.61761564 16.32161188 67.42707907 13.578125 68.61328125 C11.90238452 70.2194252 11.90238452 70.2194252 10.390625 72.23828125 C2.98803222 81.0268914 -5.32981127 85.84026532 -16.421875 88.61328125 C-16.421875 98.84328125 -16.421875 109.07328125 -16.421875 119.61328125 C-22.691875 119.61328125 -28.961875 119.61328125 -35.421875 119.61328125 C-35.421875 109.38328125 -35.421875 99.15328125 -35.421875 88.61328125 C-38.721875 87.62328125 -42.021875 86.63328125 -45.421875 85.61328125 C-53.57894095 81.61471951 -59.89587658 76.81064173 -64.89453125 69.22265625 C-65.65056641 68.42601562 -65.65056641 68.42601562 -66.421875 67.61328125 C-69.85383318 67.61328125 -71.32801532 67.7654317 -74.36865234 68.90405273 Z "
    fill="#112F71"
    transform="translate(723.421875,159.38671875)"
  />
  <path
    d="M0 0 C0.89912109 -0.03738281 1.79824219 -0.07476563 2.72460938 -0.11328125 C22.92325473 -0.35582669 43.65946173 6.57461955 63.09301758 11.40405273 C66.75644555 12.31410117 70.42196665 13.215299 74.08789062 14.11523438 C85.98288577 17.04676198 97.8332515 20.09294108 109.6408844 23.35853577 C116.94832555 25.37016904 124.2819819 27.13088164 131.6875 28.75 C132.99585907 29.03938454 134.30412402 29.32919482 135.61230469 29.61938477 C137.667303 30.07494698 139.72242857 30.52987392 141.77807617 30.98249817 C146.70445938 32.06807594 151.62268465 33.18648078 156.5390625 34.31640625 C199.14443611 44.07414248 242.39047852 52.36530269 286.0625 55.375 C283.38111804 73.05638196 283.38111804 73.05638196 279.0625 77.375 C266.57156606 77.97464037 253.9204464 77.12668772 241.4375 76.625 C240.39013672 76.5830954 239.34277344 76.5411908 238.26367188 76.49801636 C219.71462615 75.73094659 201.35964486 74.16749599 182.94287109 71.85986328 C179.41808738 71.41943164 175.89168371 71.00007335 172.36328125 70.58984375 C145.51046122 67.42223612 118.92238753 62.6795505 92.33972168 57.79266357 C90.02549317 57.3682126 87.71051598 56.94800729 85.39550781 56.52783203 C83.93290152 56.25966464 82.47033458 55.99128254 81.0078125 55.72265625 C79.71633301 55.48683838 78.42485352 55.25102051 77.09423828 55.00805664 C74.0625 54.375 74.0625 54.375 72.0625 53.375 C70.4812263 53.09876973 68.89227144 52.86574615 67.30078125 52.65625 C66.34623047 52.52863281 65.39167969 52.40101563 64.40820312 52.26953125 C63.40724609 52.13933594 62.40628906 52.00914062 61.375 51.875 C59.41273968 51.6147396 57.45049964 51.35432629 55.48828125 51.09375 C54.54364014 50.97104736 53.59899902 50.84834473 52.62573242 50.72192383 C50.60209655 50.44803236 48.58461455 50.12868576 46.5703125 49.79296875 C15.69091505 46.11357507 -14.88658514 53.85594965 -42.9375 66.375 C-43.79682129 66.75527344 -44.65614258 67.13554688 -45.54150391 67.52734375 C-63.49900124 75.55377597 -79.73129544 85.63932874 -95.81445312 96.89208984 C-116.83570309 111.57505584 -116.83570309 111.57505584 -127.1875 117.734375 C-128.84031519 118.72042952 -130.47382366 119.74175074 -132.0625 120.828125 C-151.20536657 133.24107754 -183.50911421 131.31926663 -204.76660156 126.87109375 C-219.92018212 123.40819725 -234.19579987 116.61914503 -245.9375 106.375 C-246.76894531 105.6634375 -247.60039063 104.951875 -248.45703125 104.21875 C-256.3489765 97.30886091 -263.74192928 90.17755462 -267.9375 80.375 C-267.9375 79.385 -267.9375 78.395 -267.9375 77.375 C-267.3384082 77.2706665 -266.73931641 77.16633301 -266.12207031 77.05883789 C-237.31072472 71.96098928 -209.02391118 64.52437052 -180.9375 56.375 C-180.13344727 56.14329102 -179.32939453 55.91158203 -178.50097656 55.67285156 C-160.69837713 50.53792136 -143.10323484 44.83669457 -125.5625 38.875 C-124.53448273 38.52595612 -123.50646545 38.17691223 -122.44729614 37.81729126 C-105.74814367 32.1351841 -89.24613911 26.0557601 -72.81268311 19.6524353 C-23.18915479 0.34078918 -23.18915479 0.34078918 0 0 Z "
    fill="#56AAD9"
    transform="translate(797.9375,824.625)"
  />
  <path
    d="M0 0 C15.84 0 31.68 0 48 0 C51 19 51 19 51.75 24.8125 C53.46991932 35.22097725 57.08993802 45.9237574 61.10009766 55.67504883 C62 58 62 58 62.0546875 60.078125 C60.33400358 63.21359348 57.23524632 64.266088 54.125 65.75 C47.18881924 69.230986 41.12747053 73.21012699 35 78 C15.39313304 63.39914163 3.81634476 34.05158362 0.375 10.6640625 C0 7 0 7 0 0 Z "
    fill="#123072"
    transform="translate(572,463)"
  />
  <path
    d="M0 0 C0.4640625 0.32871094 0.928125 0.65742188 1.40625 0.99609375 C7.24129916 5.01313319 13.31028948 8.49975909 19.50195312 11.92749023 C22.40710545 13.53620079 25.2350989 15.1567326 28 17 C27.39165032 20.32280745 26.58884857 23.43675761 25.4765625 26.625 C25.17903076 27.48931641 24.88149902 28.35363281 24.57495117 29.24414062 C24.26146729 30.15357422 23.9479834 31.06300781 23.625 32 C19.34310039 44.73178966 16.72228477 56.71161435 15.64526367 70.10742188 C15.57412354 70.98462891 15.5029834 71.86183594 15.4296875 72.765625 C15.37022949 73.55743164 15.31077148 74.34923828 15.24951172 75.16503906 C15 77 15 77 14 78 C12.49581261 78.09311889 10.98728644 78.11746028 9.48022461 78.11352539 C8.03884377 78.11341209 8.03884377 78.11341209 6.56834412 78.11329651 C5.523564 78.10813522 4.47878387 78.10297394 3.40234375 78.09765625 C2.33834854 78.0962413 1.27435333 78.09482635 0.17811584 78.09336853 C-3.23545083 78.08775064 -6.648953 78.07519511 -10.0625 78.0625 C-12.37044176 78.05748731 -14.67838455 78.052924 -16.98632812 78.04882812 C-22.65757426 78.0377754 -28.32878253 78.02101987 -34 78 C-34.01114856 76.57277187 -34.01906311 75.14551826 -34.02563477 73.71826172 C-34.03277245 72.52606522 -34.03277245 72.52606522 -34.04005432 71.30978394 C-33.57980736 44.76905093 -16.94401027 19.11631928 0 0 Z "
    fill="#123072"
    transform="translate(606,366)"
  />
  <path
    d="M0 0 C16.17 0 32.34 0 49 0 C46.89180317 27.40655881 37.38339427 50.77333829 20 72 C18.66555991 73.66578066 17.33184271 75.33214193 16 77 C12.04397439 76.45170873 9.77300754 75.36201809 6.625 72.9375 C0.14939616 68.20834689 -6.88435846 64.65269599 -14 61 C-13.7733667 60.33581055 -13.5467334 59.67162109 -13.31323242 58.98730469 C-12.26633982 55.90987274 -11.22689905 52.82997058 -10.1875 49.75 C-9.83107422 48.70585937 -9.47464844 47.66171875 -9.10742188 46.5859375 C-3.88551825 31.06394873 -1.17217359 16.41043019 0 0 Z "
    fill="#123072"
    transform="translate(774,463)"
  />
  <path
    d="M0 0 C1.87406263 2.01938574 3.52928593 4.00060894 5.1875 6.1875 C5.67508789 6.82244385 6.16267578 7.4573877 6.66503906 8.11157227 C17.78642738 22.81655961 25.44289597 38.20353687 30 56 C30.34417969 57.0003125 30.68835938 58.000625 31.04296875 59.03125 C32.45536371 64.88836545 32.57073631 70.99030836 33 77 C16.83 77 0.66 77 -16 77 C-16.66 70.07 -17.32 63.14 -18 56 C-18.81112264 51.78558267 -19.63327694 47.79996998 -20.75 43.6875 C-21.0073291 42.69621094 -21.2646582 41.70492187 -21.52978516 40.68359375 C-23.78921825 32.23158964 -26.65048886 24.07683537 -30 16 C-29.35973877 15.65743164 -28.71947754 15.31486328 -28.05981445 14.96191406 C-25.14119998 13.39651142 -22.22684168 11.82334202 -19.3125 10.25 C-18.30509766 9.71117187 -17.29769531 9.17234375 -16.25976562 8.6171875 C-15.28330078 8.08867187 -14.30683594 7.56015625 -13.30078125 7.015625 C-12.40528564 6.53383789 -11.50979004 6.05205078 -10.5871582 5.55566406 C-7.89736756 4.02606443 -7.89736756 4.02606443 -5.35620117 1.81152344 C-3 0 -3 0 0 0 Z "
    fill="#123072"
    transform="translate(790,367)"
  />
  <path
    d="M0 0 C8.69372459 16.42575398 13 35.53566917 13 54 C-2.84 54 -18.68 54 -35 54 C-35 37.83 -35 21.66 -35 5 C-28.4 4.01 -21.8 3.02 -15 2 C-10.97812167 1.20420162 -10.97812167 1.20420162 -6.97265625 0.33203125 C-4.6250982 -0.06310228 -2.37604179 -0.05371921 0 0 Z "
    fill="#133173"
    transform="translate(742,390)"
  />
  <path
    d="M0 0 C2.34020901 0.28102907 4.67307125 0.62455608 7 1 C8.11044678 1.15863525 9.22089355 1.31727051 10.36499023 1.48071289 C18.57666016 2.65380859 26.78833008 3.8269043 35 5 C35 21.17 35 37.34 35 54 C19.16 54 3.32 54 -13 54 C-11.84324916 33.1784849 -11.84324916 33.1784849 -9.8125 26.375 C-9.5969043 25.60430176 -9.38130859 24.83360352 -9.15917969 24.03955078 C-3.13851731 3.13851731 -3.13851731 3.13851731 0 0 Z "
    fill="#133173"
    transform="translate(653,390)"
  />
  <path
    d="M0 0 C15.84 0 31.68 0 48 0 C48 16.17 48 32.34 48 49 C39.78833008 50.1730957 31.57666016 51.34619141 23.36499023 52.51928711 C22.25454346 52.67792236 21.14409668 52.83655762 20 53 C17.66666667 53.33333333 15.33333333 53.66666667 13 54 C10.11699817 48.50174812 7.79945547 43.10697197 5.9375 37.1875 C5.68145996 36.37434326 5.42541992 35.56118652 5.16162109 34.72338867 C1.71598137 23.29750698 0 11.91933465 0 0 Z "
    fill="#133173"
    transform="translate(640,463)"
  />
  <path
    d="M0 0 C15.84 0 31.68 0 48 0 C48 6.92221565 47.80840071 12.74065094 46.4375 19.375 C46.26621582 20.220625 46.09493164 21.06625 45.91845703 21.9375 C43.56504384 32.85701508 40.1361081 44.04513682 35 54 C27.43612785 53.23147823 19.94767448 52.11352947 12.4375 50.9375 C8.333125 50.298125 4.22875 49.65875 0 49 C0 32.83 0 16.66 0 0 Z "
    fill="#133072"
    transform="translate(707,463)"
  />
  <path
    d="M0 0 C3.54354124 1.34121684 4.89594698 4.98700925 6.70385742 8.13818359 C10.4310284 14.38540667 14.37548653 19.93593155 19.09838867 25.47802734 C21.31824807 28.12287 23.19584596 30.83453472 25.01635742 33.76318359 C18.28003857 32.62842311 12.16724418 30.9571318 5.89135742 28.26318359 C5.08529053 27.91932617 4.27922363 27.57546875 3.44873047 27.22119141 C-2.31464515 24.67927332 -7.7928702 21.79020585 -13.17114258 18.51318359 C-13.86030762 18.10132813 -14.54947266 17.68947266 -15.25952148 17.26513672 C-17.15161133 16.06005859 -17.15161133 16.06005859 -19.98364258 13.76318359 C-19.98364258 12.44318359 -19.98364258 11.12318359 -19.98364258 9.76318359 C-17.35896624 8.2834401 -14.73391765 6.80436417 -12.10864258 5.32568359 C-11.36227539 4.90480469 -10.6159082 4.48392578 -9.84692383 4.05029297 C-8.7737793 3.44604492 -8.7737793 3.44604492 -7.67895508 2.82958984 C-7.01911621 2.45777588 -6.35927734 2.08596191 -5.67944336 1.70288086 C-2.1443866 -0.25600677 -2.1443866 -0.25600677 0 0 Z "
    fill="#153274"
    transform="translate(642.983642578125,542.23681640625)"
  />
  <path
    d="M0 0 C-0.58265625 0.65742188 -1.1653125 1.31484375 -1.765625 1.9921875 C-8.88356584 10.25168489 -14.90833842 19.05109339 -20.83007812 28.19750977 C-21.87436084 29.80642865 -22.93602395 31.40403593 -24 33 C-28.3975361 32.39174267 -31.68785357 30.7531372 -35.5625 28.625 C-36.67753906 28.01914062 -37.79257812 27.41328125 -38.94140625 26.7890625 C-41.45321433 25.31983121 -43.72908354 23.81007033 -46 22 C-43.61679357 14.85038072 -30.59259224 10.11951178 -24 6.75 C-6.2692382 -2.08974607 -6.2692382 -2.08974607 0 0 Z "
    fill="#153374"
    transform="translate(668,332)"
  />
  <path
    d="M0 0 C8.2487909 2.27140619 14.9253631 6.2835754 22 11 C22 11.66 22 12.32 22 13 C19.94590286 14.51930262 17.91105399 15.89752077 15.75 17.25 C15.11030273 17.65259033 14.47060547 18.05518066 13.81152344 18.4699707 C5.02720496 23.92256938 -3.84006338 28.10980968 -13.625 31.4375 C-14.4200293 31.70908936 -15.21505859 31.98067871 -16.03417969 32.26049805 C-21.74983927 34.12508037 -21.74983927 34.12508037 -24 33 C-23.28714844 32.10539063 -22.57429687 31.21078125 -21.83984375 30.2890625 C-14.06959681 20.4964039 -6.88268117 10.43747255 0 0 Z "
    fill="#143273"
    transform="translate(751,542)"
  />
  <path
    d="M0 0 C11.0758671 2.06499217 20.95636783 6.28904614 30.875 11.5 C31.57625 11.86746338 32.2775 12.23492676 33 12.61352539 C37.60669646 15.09148581 41.7980864 17.88422072 46 21 C44.87510915 24.37467255 44.51655212 24.57939839 41.578125 26.2265625 C40.88203125 26.6184375 40.1859375 27.0103125 39.46875 27.4140625 C38.7365625 27.81367188 38.004375 28.21328125 37.25 28.625 C36.17492187 29.23601562 36.17492187 29.23601562 35.078125 29.859375 C31.4153069 31.8927777 28.23005048 33.51704148 24 34 C23.56171875 33.319375 23.1234375 32.63875 22.671875 31.9375 C18.10286233 24.95396844 13.27120197 18.24531842 8.21386719 11.609375 C5.33207022 7.82023998 2.59513172 3.99155975 0 0 Z "
    fill="#153274"
    transform="translate(727,331)"
  />
  <path
    d="M0 0 C0 11.55 0 23.1 0 35 C-2 35 -2 35 -3.375 33.70703125 C-25 8.49519231 -25 8.49519231 -25 3 C-23.08813411 2.48194602 -21.17006735 1.98677764 -19.25 1.5 C-17.64898438 1.08234375 -17.64898438 1.08234375 -16.015625 0.65625 C-10.74255465 -0.20549691 -5.34302149 0 0 0 Z "
    fill="#193576"
    transform="translate(688,532)"
  />
  <path
    d="M0 0 C0.66 0 1.32 0 2 0 C2 11.55 2 23.1 2 35 C-11.5 35 -11.5 35 -17.25 33.5 C-18.34828125 33.2215625 -19.4465625 32.943125 -20.578125 32.65625 C-21.37734375 32.4396875 -22.1765625 32.223125 -23 32 C-21.43505793 27.30517378 -18.86098024 23.73590824 -15.9375 19.8125 C-15.4523291 19.15483643 -14.9671582 18.49717285 -14.46728516 17.81958008 C-10.79194198 12.90331329 -6.88866628 8.32657255 -2.6796875 3.85546875 C-0.93643851 2.09681341 -0.93643851 2.09681341 0 0 Z "
    fill="#183576"
    transform="translate(686,340)"
  />
  <path
    d="M0 0 C7.88181274 6.75583949 7.88181274 6.75583949 10.09765625 9.55078125 C10.5865332 10.16284424 11.07541016 10.77490723 11.57910156 11.40551758 C12.06862305 12.03482178 12.55814453 12.66412598 13.0625 13.3125 C13.5790918 13.96822998 14.09568359 14.62395996 14.62792969 15.29956055 C25 28.5787553 25 28.5787553 25 32 C23.08813411 32.51805398 21.17006735 33.01322236 19.25 33.5 C18.18265625 33.7784375 17.1153125 34.056875 16.015625 34.34375 C10.74255465 35.20549691 5.34302149 35 0 35 C0 23.45 0 11.9 0 0 Z "
    fill="#153374"
    transform="translate(707,340)"
  />
  <path
    d="M0 0 C13.5 0 13.5 0 19.25 1.5 C20.34828125 1.7784375 21.4465625 2.056875 22.578125 2.34375 C23.37734375 2.5603125 24.1765625 2.776875 25 3 C20.66824521 13.04179519 9.96978816 30.01510592 0 35 C0 23.45 0 11.9 0 0 Z "
    fill="#153274"
    transform="translate(707,532)"
  />
</svg>